<svg width="11" height="12" viewBox="0 0 11 12" fill="none" xmlns="http://www.w3.org/2000/svg">
<path d="M7.28187 4.14679C7.28187 4.09523 7.23968 4.05304 7.18812 4.05304L6.41468 4.05656L5.24984 5.44523L4.08616 4.05773L3.31155 4.05421C3.25999 4.05421 3.2178 4.09523 3.2178 4.14796C3.2178 4.17023 3.22601 4.19132 3.24007 4.2089L4.76468 6.0253L3.24007 7.84054C3.22591 7.85771 3.21805 7.87922 3.2178 7.90148C3.2178 7.95304 3.25999 7.99523 3.31155 7.99523L4.08616 7.99171L5.24984 6.60304L6.41351 7.99054L7.18694 7.99405C7.23851 7.99405 7.28069 7.95304 7.28069 7.9003C7.28069 7.87804 7.27249 7.85695 7.25843 7.83937L5.73616 6.02413L7.26077 4.20773C7.27484 4.19132 7.28187 4.16906 7.28187 4.14679Z" fill="#FFA552"/>
<path d="M5.25 0.75C2.35078 0.75 0 3.10078 0 6C0 8.89922 2.35078 11.25 5.25 11.25C8.14922 11.25 10.5 8.89922 10.5 6C10.5 3.10078 8.14922 0.75 5.25 0.75ZM5.25 10.3594C2.84297 10.3594 0.890625 8.40703 0.890625 6C0.890625 3.59297 2.84297 1.64062 5.25 1.64062C7.65703 1.64062 9.60938 3.59297 9.60938 6C9.60938 8.40703 7.65703 10.3594 5.25 10.3594Z" fill="#FFA552"/>
</svg>
