<svg width="11" height="12" viewBox="0 0 11 12" fill="none"  xmlns="http://www.w3.org/2000/svg">
<path d="M5.25 0.75C2.35078 0.75 0 3.10078 0 6C0 8.89922 2.35078 11.25 5.25 11.25C8.14922 11.25 10.5 8.89922 10.5 6C10.5 3.10078 8.14922 0.75 5.25 0.75ZM5.25 10.3594C2.84297 10.3594 0.890625 8.40703 0.890625 6C0.890625 3.59297 2.84297 1.64062 5.25 1.64062C7.65703 1.64062 9.60938 3.59297 9.60938 6C9.60938 8.40703 7.65703 10.3594 5.25 10.3594Z" fill="#293452"/>
<path d="M7.29736 7.4825L5.62626 6.27429V3.3739C5.62626 3.32234 5.58408 3.28015 5.53251 3.28015H4.96884C4.91728 3.28015 4.87509 3.32234 4.87509 3.3739V6.60125C4.87509 6.63171 4.88915 6.65984 4.91376 6.67742L6.85204 8.0907C6.89423 8.12117 6.95283 8.11179 6.98329 8.07078L7.31845 7.61375C7.34892 7.57039 7.33954 7.51179 7.29736 7.4825Z" fill="#293452"/>
</svg>
